<?xml version="1.0" encoding="utf-8"?>
<!-- Generator: Adobe Adobe Illustrator 29.0.0, SVG Export Plug-In . SVG Version: 6.00 Build 0)  -->
<svg version="1.1" id="Layer_1" xmlns="http://www.w3.org/2000/svg" xmlns:xlink="http://www.w3.org/1999/xlink" x="0px" y="0px"
     viewBox="0 0 1280 720" style="enable-background:new 0 0 1280 720;" xml:space="preserve">
<circle cx="640" cy="323.77" r="182.5" fill="none" stroke="#FFFFFF" stroke-width="43.6602" stroke-linecap="round" stroke-miterlimit="10"/>
<path fill="#F24D17" d="M631.81,255.39c11.97-24.67,26.94-48,54.57-45.49s48,26.94,45.49,54.57c-0.14,1.55-0.35,3.08-0.63,4.58
    c-3.79,20.44-11.99,38.96-23.46,54.72c-22.28,30.63-49.22,55.86-79.19,75.35c-19.43,12.64-42,16.63-63.17,12.92
    c-11.45-2.01-19.12-12.89-17.18-24.34c1.54-9.11,15.26-18.95,21.32-25.01c16.2-16.2,21-26.33,31.63-43.36
    C614.62,297.8,623.2,279.7,631.81,255.39z"/>
<path fill="#F24D17" d="M729.07,330.16c11.18-14.76,23.45-28.13,35.68-22.1c12.23,6.03,16.08,25.7,8.6,43.94
    c-0.42,1.02-0.87,2.02-1.34,2.99c-6.43,13.19-14.46,24.38-23.38,33.21c-17.32,17.15-35.57,29.93-53.91,38.37
    c-11.89,5.47-23.26,4.62-32.22-1.21c-4.85-3.15-5.91-11.69-2.4-19.11c2.8-5.9,11.4-10.38,15.59-13.51
    c11.21-8.38,15.75-14.46,24.56-24.27C711.4,356.06,719.52,345.2,729.07,330.16z"/>
<path fill="#F24D17" d="M559.14,248.27c5.14-13.03,11.78-25.44,25.35-24.9c13.57,0.54,24.21,12.56,23.78,26.85
    c-0.02,0.8-0.08,1.59-0.18,2.38c-1.27,10.63-4.74,20.38-9.89,28.81c-10.01,16.37-22.44,30.09-36.52,40.94
    c-9.13,7.04-20.04,9.7-30.49,8.37c-5.65-0.72-9.71-6.12-9.09-12.06c0.49-4.73,6.91-10.17,9.7-13.45c7.45-8.78,9.5-14.12,14.21-23.18
    C551.95,270.57,555.63,261.02,559.14,248.27z"/>
</svg>